<svg width="18" height="17" viewBox="0 0 18 17" fill="none" xmlns="http://www.w3.org/2000/svg">
<path fill-rule="evenodd" clip-rule="evenodd" d="M8.76122 0.216309C4.14228 0.216309 0.397705 3.96088 0.397705 8.57983C0.397705 13.1988 4.14228 16.9433 8.76122 16.9433C13.3802 16.9433 17.1247 13.1988 17.1247 8.57983C17.1247 3.96088 13.3802 0.216309 8.76122 0.216309ZM12.3864 7.16563C12.4532 7.08933 12.504 7.00044 12.5359 6.90421C12.5678 6.80797 12.5801 6.70633 12.5722 6.60526C12.5642 6.5042 12.5361 6.40574 12.4895 6.31569C12.4429 6.22564 12.3788 6.14582 12.3009 6.08091C12.223 6.01601 12.133 5.96734 12.036 5.93776C11.939 5.90819 11.8371 5.8983 11.7363 5.90869C11.6354 5.91908 11.5377 5.94954 11.4488 5.99826C11.3599 6.04699 11.2816 6.113 11.2186 6.19242L7.9492 10.1149L6.25749 8.42244C6.11409 8.28394 5.92203 8.20731 5.72268 8.20904C5.52333 8.21077 5.33263 8.29073 5.19166 8.4317C5.05069 8.57267 4.97073 8.76337 4.969 8.96272C4.96726 9.16208 5.0439 9.35413 5.1824 9.49753L7.46336 11.7785C7.53806 11.8532 7.62751 11.9114 7.72598 11.9496C7.82446 11.9878 7.92981 12.005 8.03532 12.0002C8.14083 11.9954 8.24419 11.9687 8.3388 11.9218C8.43341 11.8748 8.5172 11.8087 8.58483 11.7275L12.3864 7.16563Z" fill="#007AFF"/>
</svg>
