<svg width="16" height="8" viewBox="0 0 16 8" fill="none" xmlns="http://www.w3.org/2000/svg">
<path d="M15.1121 1.4129C15.1127 1.57149 15.0777 1.72818 15.0097 1.87147C14.9417 2.01475 14.8425 2.14099 14.7194 2.2409L8.35014 7.36813C8.16019 7.52426 7.92194 7.60962 7.67606 7.60962C7.43018 7.60962 7.19193 7.52426 7.00198 7.36813L0.632751 2.06044C0.415967 1.88026 0.279639 1.62133 0.253759 1.34064C0.227879 1.05994 0.314566 0.780454 0.49475 0.563671C0.674934 0.346887 0.933856 0.21056 1.21455 0.184679C1.49525 0.1588 1.77474 0.245486 1.99152 0.42567L7.68137 5.17075L13.3712 0.584901C13.527 0.455093 13.7168 0.372636 13.918 0.347287C14.1192 0.321937 14.3235 0.354757 14.5066 0.441862C14.6898 0.528968 14.8441 0.666713 14.9514 0.838799C15.0587 1.01089 15.1145 1.21011 15.1121 1.4129Z" fill="white"/>
</svg>
